<svg viewBox="0 0 311 51" xmlns="http://www.w3.org/2000/svg" xmlns:xlink="http://www.w3.org/1999/xlink"><linearGradient id="a" gradientUnits="userSpaceOnUse" x1="122.01" x2="122.01" y1=".57" y2="50.39"><stop offset="0" stop-color="#ffe100"/><stop offset=".09" stop-color="#ffda00"/><stop offset=".17" stop-color="#ffd400"/><stop offset=".22" stop-color="#ffcd03"/><stop offset=".26" stop-color="#ffc709"/><stop offset=".47" stop-color="#fbad18"/><stop offset=".68" stop-color="#f7941d"/><stop offset=".84" stop-color="#ef7f1f"/><stop offset="1" stop-color="#ea6c20"/></linearGradient><linearGradient id="b" x1="104.17" x2="142.39" xlink:href="#a" y1="44.82" y2="3.41"/><path d="m0 29v-.84c0-8.92 5.36-12.26 12.1-12.26 3.06 0 5 .36 6.37 1v5a13.08 13.08 0 0 0 -5-.88c-3.92-.02-6.14 1.98-6.14 6.64v1.1c0 4.65 1.56 7.2 6.08 7.2a13.14 13.14 0 0 0 5.32-1v4.88a16 16 0 0 1 -6.89 1.31c-7.43-.02-11.84-3.88-11.84-12.15z" fill="#12447d" fill-rule="evenodd"/><path d="m21.9 14.67h6.23v26.02h-6.23z" fill="#12447d"/><g fill-rule="evenodd"><path d="m32 35.64v-13.64h6.16v12.32c0 1.5.66 2 2.3 2a7.37 7.37 0 0 0 2.84-.65v-13.67h6.16v18.73h-5.46l-.4-1.64h-.18a8.67 8.67 0 0 1 -5.68 2c-3.59-.03-5.74-1.63-5.74-5.45z" fill="#12447d"/><path d="m65.69 31.71v-.55c0-3.86-1.21-4.8-3.46-4.8a6.3 6.3 0 0 0 -2.67.61v9.43a5.7 5.7 0 0 0 2.37.44c2 0 3.76-1 3.76-5.13zm-12.32 8.07v-25.1h6.19v8.66h.19a8 8 0 0 1 5.32-1.71c3.53 0 7 2.07 7 8.87v.5c0 7.24-3.61 10.11-10.46 10.11a23.9 23.9 0 0 1 -8.24-1.33z" fill="#12447d"/><path d="m80.61 29.41h5.69c0-2.73-.91-3.71-2.74-3.71-1.38 0-2.69.8-3 3.71zm-6.26 2.11v-.47c0-5.79 3.6-9.43 9.21-9.43 6.31 0 8.68 3.54 8.68 9.68v1.61h-11.59c.36 2.94 2 3.78 5.21 3.78a15.22 15.22 0 0 0 5.61-1.13v3.82a14 14 0 0 1 -7.21 1.68c-6.67 0-9.91-3.35-9.91-9.54z" fill="#12447d"/><path d="m152.19 29v-.84c0-8.92 5.35-12.26 12.09-12.26 3.07 0 5 .36 6.38 1v5a13.11 13.11 0 0 0 -5-.88c-3.94 0-6.16 1.93-6.16 6.63v1.09c0 4.65 1.57 7.2 6.09 7.2a13.18 13.18 0 0 0 5.32-1v4.88a16 16 0 0 1 -6.91 1.31c-7.41 0-11.81-3.86-11.81-12.13z" fill="#12447d"/><path d="m183.28 36.4v-3.64l-2.19.22c-1.46.15-2.08.73-2.08 2.11 0 1.6.84 2.07 2 2.07a3.21 3.21 0 0 0 2.26-.76zm-10.21-.66c0-4 2.74-5.27 6.78-5.82l3.43-.51v-.76c0-2-.95-2.4-3.65-2.4a23.21 23.21 0 0 0 -4.95.54v-4.07a20.16 20.16 0 0 1 7.32-1.1c4.63 0 7.47 1.5 7.47 5.75v13.36h-5.14l-.43-1.46h-.18c-.81 1.13-2.48 1.79-4.81 1.79-3.43 0-5.84-1.71-5.84-5.32z" fill="#12447d"/><path d="m193.33 22h6v1.64h.18a9.47 9.47 0 0 1 6-2c3.5 0 5.54 1.42 5.54 5.14v13.91h-6.2v-12.22c0-1.53-.65-2-2.37-2a8.59 8.59 0 0 0 -2.87.62v13.6h-6.24z" fill="#12447d"/><path d="m226.57 35.71v-9.21a4.9 4.9 0 0 0 -2.58-.65c-2.19 0-3.5 1.16-3.5 5.16v.55c0 4 1.35 5 3.42 5a4.47 4.47 0 0 0 2.66-.83zm-12.46-3.9v-.4c0-7.06 3.57-9.78 8.53-9.78a8.06 8.06 0 0 1 3.93.8v-7.76h6.16v26h-5.32l-.4-1.42h-.22a7.21 7.21 0 0 1 -5.24 1.79c-3.94.02-7.44-2.6-7.44-9.23z" fill="#12447d"/><path d="m242.08 29.41h5.68c0-2.73-.91-3.71-2.73-3.71-1.38 0-2.69.8-2.95 3.71zm-6.27 2.11v-.47c0-5.79 3.61-9.43 9.22-9.43 6.31 0 8.68 3.54 8.68 9.68v1.61h-11.59c.36 2.94 2 3.78 5.21 3.78a15.22 15.22 0 0 0 5.61-1.13v3.82a14 14 0 0 1 -7.21 1.68c-6.67 0-9.92-3.35-9.92-9.54z" fill="#12447d"/><path d="m256.94 22h6.23v18.73h-6.23zm0-6.84h6.3v4.73h-6.3z" fill="#12447d"/><path d="m276.3 36.4v-3.64l-2.19.22c-1.45.15-2.07.73-2.07 2.11 0 1.6.84 2.07 2 2.07a3.19 3.19 0 0 0 2.26-.76zm-10.2-.66c0-4 2.73-5.27 6.78-5.82l3.42-.51v-.76c0-2-.95-2.4-3.64-2.4a23.23 23.23 0 0 0 -5 .54v-4.07a20.18 20.18 0 0 1 7.33-1.1c4.62 0 7.47 1.5 7.47 5.75v13.36h-5.14l-.44-1.46h-.18c-.8 1.13-2.48 1.79-4.81 1.79-3.39 0-5.79-1.71-5.79-5.32z" fill="#12447d"/><path d="m285.8 39.82v-4.15a14.21 14.21 0 0 0 5.57 1.09c2.26 0 3.17-.54 3.17-1.56s-.54-1.2-2.15-1.42l-1.71-.26c-3.21-.47-5-2.21-5-5.85s2.47-6 7.68-6a14.67 14.67 0 0 1 5.95 1v4.11a17.23 17.23 0 0 0 -5.14-.84c-1.86 0-2.74.48-2.74 1.46s.66 1.24 2.15 1.45l1.75.22c3.79.51 5.14 2.55 5.14 5.79 0 4.11-2.59 6.26-8.2 6.26a15.5 15.5 0 0 1 -6.47-1.3z" fill="#12447d"/><path d="m97.24 24c2.93-2.17 9.09-6 15.56-6a14.09 14.09 0 0 1 6.92 1.75 38.72 38.72 0 0 0 10.28 3.81.75.75 0 0 1 .57.54.72.72 0 0 1 -.26.74c-.07.05-.57.43-1.39.94a56.47 56.47 0 0 0 5.72-4c.18-.15 4.28-3.6 7.79-3.6a5.34 5.34 0 0 1 3.7 1.47 24.72 24.72 0 0 0 -7.43-12.48 24.79 24.79 0 0 0 -16.7-6.45 24.83 24.83 0 0 0 -24.76 23.28zm45.57 2.61c.4-.82 1.8-3 3.35-3a2 2 0 0 1 .59.1c0 .6.07 1.2.07 1.78a24.81 24.81 0 0 1 -49.62.64 33.72 33.72 0 0 1 3.53-.2 28.31 28.31 0 0 1 9.15 1.61 27 27 0 0 0 8.24 1.54h.16a21.11 21.11 0 0 0 10.43-3.19c-4.66 2.83-11.38 6.11-17.59 6.11a16.67 16.67 0 0 1 -2.15-.13h-.06a.74.74 0 0 0 -.69.42.72.72 0 0 0 .19.84c.25.23 6.35 5.43 13.59 5.43 8.08 0 12.33-2.44 15.42-4.83a22.09 22.09 0 0 0 5.39-7.13z" fill="url(#a)"/><path d="m96.47 25.49c1.86-1.51 8.93-6.82 16.33-6.82a13.27 13.27 0 0 1 6.57 1.65 38.89 38.89 0 0 0 10.5 3.95s-5.35 4.1-11.59 4.1h-.15c-6.82-.07-9.65-3.15-17.4-3.15a35.81 35.81 0 0 0 -4.26.28 25.53 25.53 0 0 0 51.06 0c0-.76 0-1.52-.1-2.26a2.63 2.63 0 0 0 -1.27-.34c-2.35 0-4 3.39-4 3.39a21.52 21.52 0 0 1 -5.16 6.83c-3.36 2.58-7.53 4.68-15 4.68-7 0-13.12-5.25-13.12-5.25a16.63 16.63 0 0 0 2.24.14c11.32 0 24-10.31 24-10.31s4-3.43 7.32-3.43c3.19 0 4.59 2.95 5 4a25.54 25.54 0 0 0 -25.44-22.95 25.51 25.51 0 0 0 -25.53 25.49zm8.5-17a24 24 0 0 1 17-7 24 24 0 0 1 16.24 6.21 24.14 24.14 0 0 1 6.7 10.3 6 6 0 0 0 -2.48-.52c-3.68 0-7.72 3.32-8.24 3.76-.12.09-1.26 1-3.09 2.25a1.43 1.43 0 0 0 -1-.66 38 38 0 0 1 -10.06-3.8 14.79 14.79 0 0 0 -7.27-1.84c-5.83 0-11.39 3-14.71 5.28a23.9 23.9 0 0 1 6.88-14zm32.9 25.78a22.78 22.78 0 0 0 5.59-7.35c.38-.78 1.55-2.46 2.6-2.56v1.15a23.86 23.86 0 0 1 -7.05 17 23.93 23.93 0 0 1 -17 7.05 23.93 23.93 0 0 1 -17-7.05 23.89 23.89 0 0 1 -7-15.72c1-.09 1.89-.13 2.79-.13a27.39 27.39 0 0 1 8.94 1.58 27.73 27.73 0 0 0 8.45 1.57h.16.67a24.55 24.55 0 0 1 -7.83 1.46 15.24 15.24 0 0 1 -2.05-.13h-.19a1.46 1.46 0 0 0 -1.32.85 1.46 1.46 0 0 0 .38 1.68c.26.23 6.56 5.59 14.07 5.6 8.29 0 12.67-2.52 15.86-5z" fill="url(#b)"/><path d="m118.13 28.37c6.31.06 11.74-4.1 11.74-4.1a38.89 38.89 0 0 1 -10.5-3.95c-9.3-5.16-20.49 3.21-22.9 5.17 11.19-1.36 13.72 2.79 21.66 2.88z" fill="#fff"/><path d="m147.53 23.29s0-.14-.12-.36v.31z" fill="#fff"/><path d="m142.43 19c-3.29 0-7.32 3.43-7.32 3.43s-14.41 11.68-26.23 10.12c0 0 6.07 5.25 13.12 5.25 7.46 0 11.63-2.09 15-4.68a21.45 21.45 0 0 0 5.18-6.83s2.26-4.65 5.27-3.05c0-.1 0-.2 0-.31-.45-1.03-1.83-3.93-5.02-3.93z" fill="#fff"/><path d="m306.93 37.22h.78v1.1a1.58 1.58 0 0 1 -.61.09 1.59 1.59 0 0 1 .07-3.18 2.47 2.47 0 0 1 1 .19l.17-.65a3.07 3.07 0 0 0 -1.17-.21 2.25 2.25 0 0 0 -2.46 2.29 2.21 2.21 0 0 0 .62 1.62 2.37 2.37 0 0 0 1.73.59 4.21 4.21 0 0 0 1.42-.25v-2.23h-1.56z" fill="#12447d"/><path d="m307 40.3a3.49 3.49 0 1 1 3.48-3.49 3.49 3.49 0 0 1 -3.48 3.49zm0-7.5a4 4 0 1 0 4 4 4 4 0 0 0 -4-4z" fill="#12447d"/></g></svg>